<?xml version="1.0" encoding="UTF-8"?>
<svg width="19px" height="20px" viewBox="0 0 19 20" version="1.1" xmlns="http://www.w3.org/2000/svg" xmlns:xlink="http://www.w3.org/1999/xlink">
    <title>Group</title>
    <g id="Symbols" stroke="none" stroke-width="1" fill="none" fill-rule="evenodd">
        <g id="bin" fill="#344B60" fill-rule="nonzero">
            <g id="Group">
                <path d="M17.45,3 L13.4125,3 L13.4125,1.875 C13.4125,0.839466094 12.5730339,7.10542736e-15 11.5375,7.10542736e-15 L6.5375,7.10542736e-15 C5.50196609,7.10542736e-15 4.6625,0.839466094 4.6625,1.875 L4.6625,3 L0.625,3 C0.279822031,3 7.46069873e-14,3.27982203 7.46069873e-14,3.625 C7.46069873e-14,3.97017797 0.279822031,4.25 0.625,4.25 L1.625,4.25 L2.45,15.7625 C2.58808633,17.7304079 4.22725927,19.2548387 6.2,19.250027 L11.6875,19.250027 C13.6380128,19.2573379 15.2684682,17.7681887 15.4375,15.825 L16.4375,4.25 L17.4625,4.25 C17.807678,4.25 18.0875,3.97017797 18.0875,3.625 C18.0875,3.45705102 18.0199724,3.29615574 17.9000446,3.17857946 C17.7801168,3.06100318 17.6179154,2.99664102 17.45,3 Z M5.9125,1.875 C5.9125,1.52982203 6.19232203,1.25 6.5375,1.25 L11.5375,1.25 C11.882678,1.25 12.1625,1.52982203 12.1625,1.875 L12.1625,3 L5.9125,3 L5.9125,1.875 Z M14.175,15.7125 C14.0643539,17.0096085 12.9768106,18.0047106 11.675,18.0000167 L6.2,18.0000167 C4.88483951,18.0032258 3.79205755,16.9869386 3.7,15.675 L2.875,4.25 L15.175,4.25 L14.175,15.7125 Z" id="Shape"></path>
                <path d="M5.9125,14.062508 C5.56732203,14.062508 5.2875,13.782678 5.2875,13.4375 L5.2875,8.375 C5.2875,8.02982203 5.56732203,7.75 5.9125,7.75 C6.25767797,7.75 6.5375,8.02982203 6.5375,8.375 L6.5375,13.5 C6.50528626,13.8205633 6.23467379,14.0641145 5.9125,14.062508 L5.9125,14.062508 Z" id="Path"></path>
                <path d="M12.1625,14.062508 C11.817322,14.062508 11.5375,13.782678 11.5375,13.4375 L11.5375,8.375 C11.5375,8.02982203 11.817322,7.75 12.1625,7.75 C12.507678,7.75 12.7875,8.02982203 12.7875,8.375 L12.7875,13.5 C12.7552863,13.8205633 12.4846738,14.0641145 12.1625,14.062508 L12.1625,14.062508 Z" id="Path"></path>
            </g>
        </g>
    </g>
</svg>