<?xml version="1.0" encoding="UTF-8"?>
<svg width="14px" height="13px" viewBox="0 0 14 13" version="1.1" xmlns="http://www.w3.org/2000/svg" xmlns:xlink="http://www.w3.org/1999/xlink">
    <title>Group 2</title>
    <g id="Symbols" stroke="none" stroke-width="1" fill="none" fill-rule="evenodd">
        <g id="invite" fill="#344B60">
            <g id="Group-2">
                <path d="M6.85641892,0.133333333 C8.69929054,0.133333333 10.2010135,1.92666667 10.2010135,4.13333333 C10.2010135,6.34 8.69929054,8.13333333 6.85641892,8.13333333 C5.01689189,8.13333333 3.51182432,6.34 3.51182432,4.13333333 C3.51182432,1.92666667 5.0135473,0.133333333 6.85641892,0.133333333 Z M6.85641892,1.13333333 C5.56206081,1.13333333 4.5152027,2.46666667 4.5152027,4.13333333 C4.5152027,5.8 5.56206081,7.13333333 6.85641892,7.13333333 C8.15077703,7.13333333 9.19763514,5.8 9.19763514,4.13333333 C9.19763514,2.46666667 8.15077703,1.13333333 6.85641892,1.13333333 Z" id="Combined-Shape"></path>
                <path d="M9.91672297,7.8 C9.6396477,7.77238579 9.39257244,7.97385765 9.36486491,8.25 C9.33715738,8.52614236 9.53930987,8.77238574 9.81638514,8.8 C11.3722978,8.9822139 12.5777279,10.2423938 12.6860473,11.8 L1.02679054,11.8 C1.14534905,10.2469147 2.34556003,8.99219104 3.8964527,8.8 C4.17352799,8.77238576 4.3756805,8.52614237 4.34797297,8.25 C4.32026544,7.97385763 4.07319015,7.77238576 3.79611486,7.8 C3.75932432,7.8 -1.15463195e-14,8.22666667 -1.15463195e-14,12.2966667 C-1.15463195e-14,12.572809 0.224613901,12.7966667 0.501689189,12.7966667 L13.2111486,12.7966667 C13.4882239,12.7966667 13.7128378,12.572809 13.7128378,12.2966667 C13.7128378,8.22666667 9.95351351,7.8 9.91672297,7.8 Z" id="Shape"></path>
                <polygon id="+" fill-rule="nonzero" points="13.9436149 1.854 12.8298649 1.854 12.8298649 3.048 12.0713108 3.048 12.0713108 1.854 10.9635811 1.854 10.9635811 1.188 12.0713108 1.188 12.0713108 8.8817842e-16 12.8298649 8.8817842e-16 12.8298649 1.188 13.9436149 1.188"></polygon>
            </g>
        </g>
    </g>
</svg>